<svg width="24" height="24" viewBox="0 0 24 24" fill="none" xmlns="http://www.w3.org/2000/svg">
<path d="M19.104 5.95499C19.2064 5.85054 19.3285 5.76756 19.4634 5.71092C19.5982 5.65427 19.743 5.62509 19.8892 5.62509C20.0355 5.62509 20.1803 5.65427 20.3151 5.71092C20.45 5.76756 20.5721 5.85054 20.6745 5.95499C21.1035 6.38849 21.1095 7.08899 20.6895 7.52999L11.82 18.015C11.7193 18.1256 11.5971 18.2144 11.4609 18.2762C11.3246 18.3379 11.1772 18.3712 11.0277 18.374C10.8782 18.3768 10.7296 18.3491 10.5912 18.2925C10.4527 18.2359 10.3273 18.1517 10.2225 18.045L4.8255 12.576C4.61736 12.3637 4.50076 12.0783 4.50076 11.781C4.50076 11.4837 4.61736 11.1983 4.8255 10.986C4.92787 10.8815 5.05005 10.7986 5.18488 10.7419C5.31972 10.6853 5.4645 10.6561 5.61075 10.6561C5.757 10.6561 5.90178 10.6853 6.03662 10.7419C6.17145 10.7986 6.29363 10.8815 6.396 10.986L10.974 15.6255L19.074 5.98799C19.0833 5.9764 19.0933 5.96538 19.104 5.95499Z" fill="black"/>
</svg>
